#!OML:ASF E:\emotionWalksFemale\Project 1\Capture day 1\Session 1\Female1.ASF
:FULLY-SPECIFIED
:DEGREES
283
root 9.24275 14.1868 11.4552 56.3599 -75.942 -55.4026
lowerback 11.9727 -1.42899 -0.495467
upperback -3.90561 -1.70626 3.29096
thorax -10.8666 -0.661857 4.22104
lowerneck -6.32508 -3.44699 -3.83716
upperneck 4.99376 -4.64726 5.50703
head 2.98349 -2.20869 2.26897
rclavicle 4.4975e-015 -2.62396e-014
rhumerus -68.0656 18.1584 -98.7583
rradius 27.7965
rwrist 40.2143
rhand 2.9931 -47.7123
rfingers 7.12502
rthumb 28.454 -435.569
lclavicle 4.4975e-015 -2.62396e-014
lhumerus -44.5877 2.80822 85.8871
lradius 24.5953
lwrist -48.7494
lhand 20.0909 -30.3997
lfingers 7.12502
lthumb 44.6197 -6.75187
rfemur -19.5315 6.4724 31.3396
rtibia 51.6258
rfoot -29.0187 -16.7417
rtoes -17.8909
lfemur -25.3166 -3.55231 -18.8799
ltibia 62.818
lfoot -38.7856 14.574
ltoes -18.9615
284
root 9.27674 14.1503 11.4249 52.6923 -77.1021 -52.0565
lowerback 12.4147 -1.15222 -1.50101
upperback -3.75178 -1.53632 2.78559
thorax -10.9567 -0.524744 4.21575
lowerneck -6.14577 -3.64179 -3.80338
upperneck 4.73855 -4.8963 5.38698
head 2.86992 -2.33942 2.21087
rclavicle 9.69075e-016 -3.18055e-015
rhumerus -66.5655 18.6121 -96.9756
rradius 27.683
rwrist 40.722
rhand 3.08682 -48.3547
rfingers 7.12502
rthumb 28.5435 -436.196
lclavicle 9.69075e-016 -3.18055e-015
lhumerus -45.2576 1.40417 86.4755
lradius 25.7362
lwrist -46.872
lhand 20.9066 -31.0646
lfingers 7.12502
lthumb 45.3786 -7.71572
rfemur -20.0052 6.08142 30.0497
rtibia 53.0144
rfoot -28.9658 -17.4465
rtoes -19.6232
lfemur -25.0839 -3.37132 -20.3693
ltibia 63.0643
lfoot -39.011 14.7302
ltoes -20.0315
285
root 9.3066 14.1379 11.3715 53.795 -76.7848 -53.3404
lowerback 12.6063 -0.982792 -1.21368
upperback -3.67435 -1.24729 2.93974
thorax -11.0103 -0.400359 4.16453
lowerneck -5.97393 -3.80509 -3.66691
upperneck 4.60248 -5.10616 5.11048
head 2.7861 -2.4524 2.08476
rclavicle 3.15571e-015 -2.06736e-014
rhumerus -65.4585 19.5264 -95.8891
rradius 27.9154
rwrist 40.4494
rhand 3.05244 -49.3406
rfingers 7.12502
rthumb 28.5107 -437.188
lclavicle 3.15571e-015 -2.06736e-014
lhumerus -45.329 2.18866 85.7487
lradius 25.7417
lwrist -47.3592
lhand 23.1398 -31.6483
lfingers 7.12502
lthumb 47.448 -9.18196
rfemur -20.2862 6.64287 30.8243
rtibia 53.7009
rfoot -28.9485 -17.9299
rtoes -19.6049
lfemur -25.2991 -2.88051 -19.6257
ltibia 63.2752
lfoot -39.1006 14.1152
ltoes -19.6672
286
root 9.32204 14.1344 11.3359 51.5583 -77.0827 -51.7376
lowerback 13.1211 -0.831184 -1.58588
upperback -3.48425 -1.11958 2.79197
thorax -11.1091 -0.316914 4.1987
lowerneck -5.96318 -3.93152 -3.72325
upperneck 4.76773 -5.2776 5.10649
head 2.85054 -2.53797 2.0854
rclavicle 1.2424e-015 1.43125e-014
rhumerus -64.8493 20.6039 -95.4719
rradius 28.4749
rwrist 39.5523
rhand 2.59851 -49.8173
rfingers 7.12502
rthumb 28.0768 -437.736
lclavicle 1.2424e-015 1.43125e-014
lhumerus -45.3432 2.97907 85.1624
lradius 25.3496
lwrist -47.7622
lhand 23.1322 -31.8362
lfingers 7.12502
lthumb 47.441 -9.3667
rfemur -19.8042 6.78341 30.496
rtibia 54.1876
rfoot -29.6229 -17.175
rtoes -16.572
lfemur -24.6084 -2.80074 -20.0298
ltibia 63.1484
lfoot -39.1521 13.6242
ltoes -18.047
287
root 9.34362 14.1331 11.3081 47.1543 -77.2234 -47.8012
lowerback 13.6054 -0.785745 -1.9121
upperback -3.38039 -1.14106 2.5354
thorax -11.2764 -0.309685 4.12098
lowerneck -6.04412 -4.08836 -3.89118
upperneck 5.10208 -5.49521 5.24248
head 3.00297 -2.64232 2.14942
rclavicle -4.77083e-015 -2.46493e-014
rhumerus -64.2166 21.254 -94.7785
rradius 29.0698
rwrist 38.853
rhand 1.8486 -49.9918
rfingers 7.12502
rthumb 27.3598 -438.026
lclavicle -4.77083e-015 -2.46493e-014
lhumerus -45.653 2.49258 85.4781
lradius 25.1829
lwrist -47.4872
lhand 21.1688 -31.0957
lfingers 7.12502
lthumb 45.6223 -7.84551
rfemur -19.3823 6.6884 29.8979
rtibia 54.407
rfoot -30.2898 -17.0418
rtoes -13.4665
lfemur -24.1064 -3.2656 -20.742
ltibia 62.9502
lfoot -39.0037 13.5937
ltoes -17.7401
288
root 9.36803 14.1341 11.2761 43.8124 -77.1357 -44.7336
lowerback 13.8712 -0.746094 -2.06085
upperback -3.31457 -1.12923 2.40122
thorax -11.3606 -0.296776 4.06244
lowerneck -6.07047 -4.27543 -4.07343
upperneck 5.37144 -5.74727 5.32433
head 3.12449 -2.76687 2.19654
rclavicle -4.6118e-014 2.8625e-014
rhumerus -63.322 21.6857 -93.7019
rradius 29.6587
rwrist 38.4225
rhand 1.32483 -50.2003
rfingers 7.12502
rthumb 26.8587 -438.312
lclavicle -4.6118e-014 2.8625e-014
lhumerus -45.8956 2.0339 85.7368
lradius 25.432
lwrist -45.8376
lhand 20.7416 -30.2972
lfingers 7.12502
lthumb 45.2253 -6.88696
rfemur -19.155 6.8902 29.6762
rtibia 54.5349
rfoot -30.683 -17.61
rtoes -11.8569
lfemur -23.827 -3.73002 -21.1237
ltibia 62.6493
lfoot -38.8285 13.6866
ltoes -17.8115
